<?xml version="1.0" encoding="UTF-8" standalone="no"?>
<!-- Created with Inkscape (http://www.inkscape.org/) -->

<svg
   width="230"
   height="230"
   viewBox="0 0 60.854165 60.854166"
   version="1.1"
   id="svg7314"
   inkscape:version="1.2.1 (9c6d41e410, 2022-07-14)"
   sodipodi:docname="can1eventB.svg"
   xmlns:inkscape="http://www.inkscape.org/namespaces/inkscape"
   xmlns:sodipodi="http://sodipodi.sourceforge.net/DTD/sodipodi-0.dtd"
   xmlns="http://www.w3.org/2000/svg"
   xmlns:svg="http://www.w3.org/2000/svg">
  <sodipodi:namedview
     id="namedview7316"
     pagecolor="#ffffff"
     bordercolor="#666666"
     borderopacity="1.0"
     inkscape:showpageshadow="2"
     inkscape:pageopacity="0.0"
     inkscape:pagecheckerboard="0"
     inkscape:deskcolor="#d1d1d1"
     inkscape:document-units="px"
     showgrid="false"
     inkscape:zoom="2.3786088"
     inkscape:cx="22.492139"
     inkscape:cy="67.26621"
     inkscape:window-width="1920"
     inkscape:window-height="1017"
     inkscape:window-x="-8"
     inkscape:window-y="-8"
     inkscape:window-maximized="1"
     inkscape:current-layer="layer1" />
  <defs
     id="defs7311" />
  <g
     inkscape:label="Layer 1"
     inkscape:groupmode="layer"
     id="layer1">
    <path
       style="fill:#ffffff;stroke-width:0.264583px;stop-color:#000000;font-variation-settings:normal;opacity:1;vector-effect:none;fill-opacity:1;stroke-linecap:butt;stroke-linejoin:miter;stroke-miterlimit:4;stroke-dasharray:none;stroke-dashoffset:0;stroke-opacity:1;-inkscape-stroke:none;stop-opacity:1"
       d="m 30.431217,43.418021 c -1.561946,0.431936 -3.206237,0.81221 -4.92218,1.133264 1.564131,1.270932 3.237321,1.958557 4.977474,1.958537 1.731478,2.1e-5 3.396794,-0.680631 4.954219,-1.939417 -1.748892,-0.324466 -3.42027,-0.712692 -5.009513,-1.152384 z"
       id="path2217" />
    <path
       style="fill:#ffffff;stroke-width:0.264583px;stop-color:#000000;font-variation-settings:normal;opacity:1;vector-effect:none;fill-opacity:1;stroke-linecap:butt;stroke-linejoin:miter;stroke-miterlimit:4;stroke-dasharray:none;stroke-dashoffset:0;stroke-opacity:1;-inkscape-stroke:none;stop-opacity:1"
       d="m 21.735107,40.009443 c 0.91147,1.50903 1.897167,2.790024 2.940906,3.802869 0.187886,0.182325 0.378095,0.353971 0.569474,0.518831 1.631181,-0.299325 3.197664,-0.652001 4.690153,-1.051615 -1.986674,-0.570347 -3.836697,-1.22438 -5.513875,-1.955436 -0.951854,-0.414899 -1.848512,-0.853917 -2.686658,-1.314649 z"
       id="path2215" />
    <path
       style="fill:#e3ff96;stroke-width:0.264583px;stop-color:#000000;font-variation-settings:normal;opacity:1;vector-effect:none;fill-opacity:1;stroke-linecap:butt;stroke-linejoin:miter;stroke-miterlimit:4;stroke-dasharray:none;stroke-dashoffset:0;stroke-opacity:1;-inkscape-stroke:none;stop-opacity:1"
       d="m 39.296825,39.910741 c -0.889023,0.496868 -1.845321,0.968913 -2.864941,1.413351 -1.676792,0.730887 -3.524057,1.386055 -5.510775,1.955953 1.521644,0.407476 3.120571,0.765663 4.786272,1.068668 0.198232,-0.170015 0.395135,-0.347665 0.589628,-0.536401 1.066338,-1.034776 2.072085,-2.349715 2.999816,-3.901571 z"
       id="path2213" />
    <path
       style="fill:#ffffff;stroke-width:0.264583px;stop-color:#000000;fill-opacity:1;font-variation-settings:normal;opacity:1;vector-effect:none;stroke-linecap:butt;stroke-linejoin:miter;stroke-miterlimit:4;stroke-dasharray:none;stroke-dashoffset:0;stroke-opacity:1;-inkscape-stroke:none;stop-opacity:1"
       d="m 16.544209,36.064981 c -0.515474,2.942306 -0.8648,6.080541 -1.011307,9.358085 3.284907,-0.154866 6.432048,-0.509296 9.377205,-1.034045 -0.140306,-0.125026 -0.279952,-0.253032 -0.418062,-0.387057 -1.155311,-1.121111 -2.234327,-2.554702 -3.219442,-4.25297 -1.739839,-0.999884 -3.206587,-2.097344 -4.348572,-3.274218 -0.131395,-0.13541 -0.257068,-0.272261 -0.379822,-0.409795 z"
       id="path2211" />
    <path
       style="fill:#e3ff96;stroke-width:0.264583px;stop-color:#000000;font-variation-settings:normal;opacity:1;vector-effect:none;fill-opacity:1;stroke-linecap:butt;stroke-linejoin:miter;stroke-miterlimit:4;stroke-dasharray:none;stroke-dashoffset:0;stroke-opacity:1;-inkscape-stroke:none;stop-opacity:1"
       d="m 44.409175,35.952844 c -0.152942,0.175457 -0.310554,0.349895 -0.47749,0.521932 -1.102876,1.136568 -2.50867,2.199277 -4.171322,3.171382 -1.000908,1.742867 -2.099507,3.212357 -3.277836,4.355806 -0.144697,0.140415 -0.291095,0.274094 -0.438216,0.404627 2.951973,0.521228 6.105314,0.871948 9.395809,1.02216 -0.148255,-3.321111 -0.504188,-6.49978 -1.030945,-9.475907 z"
       id="path2209" />
    <path
       style="fill:#e3ff96;stroke-width:0.264583px;stop-color:#000000;font-variation-settings:normal;opacity:1;vector-effect:none;fill-opacity:1;stroke-linecap:butt;stroke-linejoin:miter;stroke-miterlimit:4;stroke-dasharray:none;stroke-dashoffset:0;stroke-opacity:1;-inkscape-stroke:none;stop-opacity:1"
       d="m 43.307433,30.925244 c -0.574352,2.01255 -1.236354,3.882446 -1.97559,5.57847 -0.41329,0.948215 -0.850687,1.841399 -1.30948,2.676839 1.472717,-0.897669 2.724132,-1.866941 3.718119,-2.891296 0.215868,-0.222463 0.419487,-0.447559 0.610815,-0.674894 -0.297264,-1.630094 -0.646472,-3.196933 -1.043864,-4.689119 z"
       id="path2207" />
    <path
       style="fill:#e3ff96;stroke-width:0.264583px;stop-color:#000000;font-variation-settings:normal;opacity:1;vector-effect:none;fill-opacity:1;stroke-linecap:butt;stroke-linejoin:miter;stroke-miterlimit:4;stroke-dasharray:none;stroke-dashoffset:0;stroke-opacity:1;-inkscape-stroke:none;stop-opacity:1"
       d="m 17.666105,30.921626 c -0.4069,1.527631 -0.762716,3.134496 -1.064535,4.806425 0.162719,0.188567 0.331911,0.37603 0.511597,0.561206 1.033714,1.065296 2.347088,2.070728 3.89692,2.998267 -0.480135,-0.865599 -0.936571,-1.795457 -1.367359,-2.78381 -0.739605,-1.696876 -1.401889,-3.56833 -1.976623,-5.582088 z"
       id="path2205" />
    <path
       style="fill:#e3ff96;stroke-width:0.264583px;stop-color:#000000;font-variation-settings:normal;opacity:1;vector-effect:none;fill-opacity:1;stroke-linecap:butt;stroke-linejoin:miter;stroke-miterlimit:4;stroke-dasharray:none;stroke-dashoffset:0;stroke-opacity:1;-inkscape-stroke:none;stop-opacity:1"
       d="m 44.555936,25.595336 c -0.315545,1.685695 -0.688252,3.302042 -1.111043,4.838981 0.428832,1.559094 0.807754,3.196672 1.126029,4.908745 1.212581,-1.531589 1.866573,-3.16603 1.866553,-4.864303 2e-5,-1.705156 -0.659486,-3.346349 -1.881539,-4.883423 z"
       id="path2203" />
    <path
       style="fill:#e3ff96;stroke-width:0.264583px;stop-color:#000000;font-variation-settings:normal;opacity:1;vector-effect:none;fill-opacity:1;stroke-linecap:butt;stroke-linejoin:miter;stroke-miterlimit:4;stroke-dasharray:none;stroke-dashoffset:0;stroke-opacity:1;-inkscape-stroke:none;stop-opacity:1"
       d="m 16.395381,25.474414 c -1.284512,1.571772 -1.979228,3.254403 -1.979207,5.004345 -2.2e-5,1.741897 0.68845,3.416672 1.961637,4.982125 0.323097,-1.756989 0.710551,-3.435472 1.149801,-5.032251 -0.432399,-1.572022 -0.812166,-3.226914 -1.132231,-4.954219 z"
       id="path2201" />
    <path
       style="fill:#e3ff96;stroke-width:0.264583px;stop-color:#000000;font-variation-settings:normal;opacity:1;vector-effect:none;fill-opacity:1;stroke-linecap:butt;stroke-linejoin:miter;stroke-miterlimit:4;stroke-dasharray:none;stroke-dashoffset:0;stroke-opacity:1;-inkscape-stroke:none;stop-opacity:1"
       d="m 40.104011,21.827091 c 0.428321,0.791083 0.838238,1.632038 1.226282,2.522327 0.739649,1.696974 1.400125,3.571557 1.975073,5.585188 0.391006,-1.467861 0.736669,-3.00703 1.030945,-4.608504 -0.187187,-0.2216 -0.385311,-0.441408 -0.595829,-0.658358 -0.975662,-1.005467 -2.19895,-1.957503 -3.636471,-2.840653 z"
       id="path2199" />
    <path
       style="fill:#e3ff96;stroke-width:0.264583px;stop-color:#000000;font-variation-settings:normal;opacity:1;vector-effect:none;fill-opacity:1;stroke-linecap:butt;stroke-linejoin:miter;stroke-miterlimit:4;stroke-dasharray:none;stroke-dashoffset:0;stroke-opacity:1;-inkscape-stroke:none;stop-opacity:1"
       d="m 20.922754,21.722705 c -1.511971,0.912444 -2.795259,1.899722 -3.809587,2.945039 -0.174418,0.179747 -0.338692,0.361717 -0.497127,0.54467 0.298487,1.641179 0.650751,3.217374 1.050582,4.719092 0.574584,-2.012478 1.234762,-3.885965 1.974039,-5.582088 0.405081,-0.929376 0.833262,-1.805643 1.282093,-2.626713 z"
       id="path2197" />
    <path
       style="fill:#e3ff96;stroke-width:0.264583px;stop-color:#000000;font-variation-settings:normal;opacity:1;vector-effect:none;fill-opacity:1;stroke-linecap:butt;stroke-linejoin:miter;stroke-miterlimit:4;stroke-dasharray:none;stroke-dashoffset:0;stroke-opacity:1;-inkscape-stroke:none;stop-opacity:1"
       d="m 30.433801,17.814933 c -2.138691,0.594535 -4.122954,1.284418 -5.906616,2.06189 -1.13188,0.493368 -2.183687,1.020973 -3.149679,1.577681 -0.525444,0.925042 -1.024803,1.926306 -1.492932,3.000334 -0.786114,1.80358 -1.483118,3.812093 -2.082043,5.978446 0.598181,2.163167 1.297008,4.163906 2.082043,5.96501 0.494484,1.134493 1.023607,2.188604 1.581816,3.156397 0.94173,0.538338 1.963371,1.049206 3.060795,1.527555 1.783815,0.777537 3.768231,1.467499 5.907132,2.06189 2.135103,-0.593582 4.110665,-1.285595 5.89163,-2.06189 1.165873,-0.508185 2.248365,-1.052713 3.238046,-1.628324 0.536916,-0.940285 1.046483,-1.960209 1.523938,-3.055628 0.784979,-1.800975 1.483772,-3.801686 2.082043,-5.964493 -0.599015,-2.166538 -1.295871,-4.17525 -2.082043,-5.978963 -0.450749,-1.03415 -0.930087,-2.00122 -1.434021,-2.897498 -1.014082,-0.594811 -2.12644,-1.156793 -3.327963,-1.680517 -1.780881,-0.77626 -3.757167,-1.468198 -5.892146,-2.06189 z"
       id="path2195" />
    <path
       style="fill:#ffffff;stroke-width:0.264583px;stop-color:#000000;font-variation-settings:normal;opacity:1;vector-effect:none;fill-opacity:1;stroke-linecap:butt;stroke-linejoin:miter;stroke-miterlimit:4;stroke-dasharray:none;stroke-dashoffset:0;stroke-opacity:1;-inkscape-stroke:none;stop-opacity:1"
       d="m 25.143684,16.610872 c -0.156863,0.138128 -0.313179,0.280029 -0.467671,0.429948 -1.079601,1.047646 -2.097003,2.382279 -3.03444,3.959448 0.864494,-0.479387 1.793253,-0.935101 2.780192,-1.365291 1.677626,-0.731251 3.528146,-1.3855 5.515425,-1.955953 -1.523239,-0.407973 -3.126028,-0.764822 -4.793506,-1.068152 z"
       id="path2193" />
    <path
       style="fill:#e3ff96;stroke-width:0.264583px;stop-color:#000000;font-variation-settings:normal;opacity:1;vector-effect:none;fill-opacity:1;stroke-linecap:butt;stroke-linejoin:miter;stroke-miterlimit:4;stroke-dasharray:none;stroke-dashoffset:0;stroke-opacity:1;-inkscape-stroke:none;stop-opacity:1"
       d="m 35.80815,16.592269 c -1.700866,0.30683 -3.334394,0.67012 -4.886007,1.085721 1.986458,0.570019 3.832851,1.226064 5.509741,1.956987 1.056738,0.460615 2.044846,0.951288 2.96106,1.468127 -0.954128,-1.622473 -1.992776,-2.991778 -3.095935,-4.062284 -0.16146,-0.15668 -0.324812,-0.304755 -0.488859,-0.448551 z"
       id="path2191" />
    <path
       style="fill:#ffffff;stroke-width:0.264583px;stop-color:#000000;font-variation-settings:normal;opacity:1;vector-effect:none;fill-opacity:1;stroke-linecap:butt;stroke-linejoin:miter;stroke-miterlimit:4;stroke-dasharray:none;stroke-dashoffset:0;stroke-opacity:1;-inkscape-stroke:none;stop-opacity:1"
       d="m 15.538069,15.534969 c 0.150632,3.272361 0.499592,6.408884 1.018026,9.345166 0.118942,-0.132867 0.240921,-0.264946 0.367936,-0.395842 1.121875,-1.15615 2.556377,-2.235844 4.256071,-3.221509 1.009435,-1.767149 2.119016,-3.255488 3.309876,-4.4111 0.106438,-0.103288 0.213667,-0.203318 0.321427,-0.301273 -2.914785,-0.514732 -6.026503,-0.862908 -9.273336,-1.015442 z"
       id="path2189" />
    <path
       style="fill:#e3ff96;stroke-width:0.264583px;stop-color:#000000;font-variation-settings:normal;opacity:1;vector-effect:none;fill-opacity:1;stroke-linecap:butt;stroke-linejoin:miter;stroke-miterlimit:4;stroke-dasharray:none;stroke-dashoffset:0;stroke-opacity:1;-inkscape-stroke:none;stop-opacity:1"
       d="m 45.434435,15.529284 c -3.253572,0.147896 -6.372114,0.491928 -9.294006,1.003557 0.114081,0.103315 0.22741,0.209556 0.340031,0.318843 1.213997,1.178064 2.343582,2.701882 3.368786,4.514453 1.623455,0.957757 2.999497,2.002131 4.082439,3.118156 0.162205,0.167164 0.315571,0.33659 0.464571,0.506946 0.52982,-2.969885 0.885422,-6.146474 1.038179,-9.461955 z"
       id="path2187" />
    <path
       style="fill:#ffffff;stroke-width:0.264583px;stop-color:#000000;font-variation-settings:normal;opacity:1;vector-effect:none;fill-opacity:1;stroke-linecap:butt;stroke-linejoin:miter;stroke-miterlimit:4;stroke-dasharray:none;stroke-dashoffset:0;stroke-opacity:1;-inkscape-stroke:none;stop-opacity:1"
       d="m 30.486511,14.343827 c -1.780174,-2.1e-5 -3.490558,0.717793 -5.085478,2.045353 1.754991,0.32518 3.437806,0.710254 5.032251,1.151351 1.620754,-0.448339 3.331873,-0.839551 5.117517,-1.168404 -1.588915,-1.316361 -3.291953,-2.028322 -5.06429,-2.0283 z"
       id="path2185" />
    <path
       style="fill:#ffffff;stroke-width:0.264583px;stop-color:#000000"
       d="m 25.167972,44.613813 c -3.023873,0.549155 -6.261924,0.917836 -9.644372,1.075904 -0.04513,1.091884 -0.07028,2.197101 -0.07028,3.316076 0.0021,1.252124 0.03668,2.501828 0.09767,3.746025 H 27.15028 c 3.8e-5,-3.38e-4 -3.7e-5,-6.95e-4 0,-0.001 h 0.265617 c -0.01454,0.120696 -0.02274,0.243787 -0.02274,0.368453 1e-6,1.682004 1.361222,3.042709 3.043226,3.042709 1.682003,0 3.042708,-1.360705 3.042708,-3.042709 0,-0.124666 -0.0077,-0.247757 -0.02222,-0.368453 h 0.267167 c 3.8e-5,3.39e-4 -3.8e-5,6.96e-4 0,0.001 h 11.705745 c 0.05868,-1.244474 0.09009,-2.494197 0.08992,-3.746025 0,-1.117045 -0.02529,-2.22034 -0.07028,-3.310392 -3.388245,-0.153348 -6.632032,-0.518421 -9.662976,-1.064018 -1.644685,1.380986 -3.431917,2.142012 -5.299934,2.141988 -1.875693,2.3e-5 -3.66856,-0.767785 -5.318539,-2.159558 z"
       id="path1493" />
    <path
       style="fill:#ffffff;stroke-width:0.264583px;stop-color:#000000"
       d="m 11.777575,15.445052 c -1.252085,0.0021 -2.5023782,0.03668 -3.7465408,0.09767 v 11.634432 c 3.419e-4,1.9e-5 6.916e-4,-1.9e-5 0.00103,0 v 0.264583 c -0.062961,-0.0039 -0.126217,-0.0062 -0.1901693,-0.0062 -1.6820018,0 -3.043225,1.361224 -3.043225,3.043225 0,1.682 1.3612232,3.042708 3.043225,3.042708 0.063952,0 0.127208,-0.0023 0.1901693,-0.0062 V 33.7814 c -3.419e-4,1.9e-5 -6.916e-4,-1.9e-5 -0.00103,0 v 11.640633 c 1.2444399,0.05868 2.4947528,0.09009 3.7465408,0.08992 1.178462,0 2.342864,-0.02573 3.490743,-0.07596 0.149517,-3.376084 0.511356,-6.607082 1.050582,-9.629386 -1.395993,-1.65242 -2.166816,-3.449156 -2.166793,-5.32784 -2.2e-5,-1.884992 0.776363,-3.686118 2.181263,-5.342826 -0.542508,-3.016171 -0.905991,-6.243624 -1.059884,-9.6144 -1.149726,-0.05013 -2.315857,-0.07597 -3.495911,-0.07596 z"
       id="path1491" />
    <path
       style="fill:#ffffff;stroke-width:0.264583px;stop-color:#000000;font-variation-settings:normal;opacity:1;vector-effect:none;fill-opacity:1;stroke-linecap:butt;stroke-linejoin:miter;stroke-miterlimit:4;stroke-dasharray:none;stroke-dashoffset:0;stroke-opacity:1;-inkscape-stroke:none;stop-opacity:1"
       d="m 30.14648,4.7950561 c -1.682002,0 -3.041158,1.3607082 -3.041158,3.0427082 0,0.089067 0.0039,0.1774716 0.01137,0.2645834 h -0.266134 c -2.7e-5,-3.405e-4 2.7e-5,-6.931e-4 0,-0.00103 H 15.550988 c -0.06099,1.2441921 -0.09557,2.4944279 -0.09767,3.7465409 0,1.15499 0.02482,2.296504 0.07286,3.42253 3.343879,0.155883 6.545285,0.518741 9.538952,1.0573 1.678081,-1.446264 3.507298,-2.24743 5.421375,-2.247408 1.907028,-2.3e-5 3.727613,0.795198 5.400187,2.231389 3.000659,-0.536522 6.208474,-0.896862 9.56014,-1.047998 0.04797,-1.123731 0.07286,-2.263139 0.07286,-3.415813 1.8e-4,-1.251816 -0.03124,-2.5020711 -0.08992,-3.7465409 H 33.44447 c -2.7e-5,3.405e-4 2.7e-5,6.931e-4 0,0.00103 h -0.266651 c 0.0075,-0.087118 0.01189,-0.1755103 0.01189,-0.2645834 0,-1.682 -1.361226,-3.0427082 -3.043225,-3.0427082 z"
       id="path1489" />
    <path
       style="fill:#e3ff96;stroke-width:0.264583px;stop-color:#000000;font-variation-settings:normal;opacity:1;vector-effect:none;fill-opacity:1;stroke-linecap:butt;stroke-linejoin:miter;stroke-miterlimit:4;stroke-dasharray:none;stroke-dashoffset:0;stroke-opacity:1;-inkscape-stroke:none;stop-opacity:1"
       d="m 49.076073,15.445569 c -1.139493,-1e-6 -2.265221,0.02608 -3.376538,0.07286 -0.155752,3.415031 -0.525912,6.684053 -1.080037,9.73429 1.342995,1.624383 2.083616,3.384687 2.083594,5.22552 2.2e-5,1.834599 -0.735794,3.591224 -2.070158,5.211569 0.551314,3.056863 0.920345,6.329858 1.071769,9.750825 1.10929,0.04689 2.23363,0.07131 3.37137,0.07131 1.251164,1.8e-4 2.502203,-0.0313 3.746025,-0.08992 V 34.278527 a 3.3072915,3.3072915 0 0 0 0.001,0 v -0.251664 c 0.08341,0.0068 0.168027,0.01033 0.253215,0.01033 1.682003,0 3.042708,-1.361221 3.042708,-3.043225 0,-1.682003 -1.360705,-3.042708 -3.042708,-3.042708 -0.08519,0 -0.169805,0.0035 -0.253215,0.01034 v -0.251147 a 3.3072915,3.3072915 0 0 0 -0.001,0 V 15.54272 c -1.243545,-0.06093 -2.494564,-0.09505 -3.746025,-0.09715 z"
       id="path1498" />
    <path
       style="fill:#ffffff;stroke-width:0.264583px;stop-color:#000000"
       d="M 1.4552083,1.4552083 V 59.39844 H 59.39844 V 1.4552083 Z M 30.14648,4.5315063 c 1.824988,0 3.308842,1.4812695 3.308842,3.306258 h 12.228194 l 0.0057,0.125057 c 0.06288,1.2898842 0.09423,2.5871467 0.09405,3.8850337 0,1.149214 -0.02499,2.284827 -0.07235,3.405477 1.107839,-0.04627 2.229512,-0.07183 3.365169,-0.07183 h 0.0021 c 1.298174,0.0022 2.593421,0.03447 3.882967,0.09974 l 0.126608,0.0078 v 12.398209 a 3.3072915,3.3072915 0 0 0 -0.0093,5.17e-4 c 1.824036,0.0011 3.304191,1.48196 3.304191,3.306258 0,1.824994 -1.481264,3.306775 -3.306258,3.306775 -0.0035,0 -0.0069,-5.05e-4 -0.01033,-5.17e-4 a 3.3072915,3.3072915 0 0 0 0.0217,0.0016 v 11.373982 l -0.126608,0.0078 c -1.289851,0.06288 -2.587167,0.09423 -3.885034,0.09405 -1.134554,0 -2.256051,-0.02442 -3.362585,-0.0708 0.04447,1.086561 0.06976,2.185815 0.06976,3.299023 1.8e-4,1.2979 -0.03065,2.59515 -0.09353,3.885034 l -0.0062,0.124541 H 33.739025 c 0.0011,0.03484 0.0057,0.06877 0.0057,0.103869 0,1.824992 -1.483333,3.308325 -3.308325,3.308325 -1.824994,0 -3.306775,-1.483333 -3.306775,-3.308325 0,-0.113158 0.0074,-0.224606 0.0186,-0.334863 a 3.3072915,3.3072915 0 0 0 -0.01912,0.230994 H 15.421797 15.29674 l -0.0078,-0.124541 c -0.06527,-1.289579 -0.09754,-2.586828 -0.09974,-3.885034 0,-1.114787 0.02521,-2.215613 0.06976,-3.303674 -1.145059,0.04966 -2.306312,0.07545 -3.481442,0.07545 -1.297859,1.8e-4 -2.5951789,-0.03117 -3.8850336,-0.09405 l -0.125057,-0.0078 V 33.786051 a 3.3072915,3.3072915 0 0 0 0.023254,-0.0016 c -1.8012289,-0.0277 -3.2576822,-1.498017 -3.2576822,-3.305741 0,-1.819406 1.4749912,-3.296711 3.2923054,-3.305741 a 3.3072915,3.3072915 0 0 0 -0.057878,-0.0015 V 15.414046 15.288989 l 0.125057,-0.0078 c 1.2895506,-0.06527 2.5868686,-0.09754 3.8850336,-0.09974 1.176224,0 2.338253,0.02637 3.484542,0.07596 -0.04748,-1.122028 -0.07286,-2.25902 -0.07286,-3.409611 0.0022,-1.298193 0.03653,-2.595454 0.101803,-3.8850337 l 0.0057,-0.125057 h 11.542965 c 0,-1.8249885 1.481787,-3.306258 3.306775,-3.306258 z"
       id="path2025" />
    <path
       style="fill:#ffffff;stroke-width:0.264583px;stop-color:#000000"
       d="M 0,0 V 60.854166 H 60.854166 V 0 Z M 1.1916585,1.1916585 H 59.664057 V 59.664057 H 1.1916585 V 1.3223999 Z"
       id="rect351" />
    <path
       style="color:#000000;fill:#000000;-inkscape-stroke:none"
       d="M 1.1914062,1.1914062 V 1.3222656 59.664062 H 59.664062 V 1.1914062 Z M 1.4550781,1.4550781 H 59.398437 V 59.398437 H 1.4550781 Z"
       id="path1820" />
    <path
       id="path234-4-5-5-7"
       style="color:#000000;fill:#000000"
       d="M 15.29674 7.8377643 L 15.291056 7.9628213 C 15.225786 9.2524114 15.191446 10.549646 15.189253 11.847855 C 15.189253 21.47147 16.888506 30.184707 19.642728 36.503714 C 21.01984 39.663218 22.660412 42.224546 24.492045 44.001964 C 26.323678 45.779383 28.351619 46.773397 30.486511 46.773371 C 32.621403 46.773398 34.650894 45.779383 36.482527 44.001964 C 38.31416 42.224547 39.954732 39.663218 41.331843 36.503714 C 44.086067 30.184707 45.783251 21.471471 45.783251 11.847855 C 45.78343 10.549952 45.75208 9.2527159 45.6892 7.9628213 L 45.683516 7.8377643 L 33.454805 7.8377643 A 3.3072915 3.3072915 0 0 1 33.43155 8.1013141 L 45.429784 8.1013141 C 45.488464 9.3457923 45.519881 10.596025 45.519701 11.847855 C 45.519702 21.440309 43.822458 30.124476 41.087931 36.398294 C 39.720666 39.535204 38.09407 42.068443 36.297009 43.812312 C 34.499947 45.556181 32.539386 46.509847 30.486511 46.509822 C 28.433636 46.509846 26.473074 45.556181 24.676013 43.812312 C 22.878953 42.068443 21.251837 39.535204 19.884574 36.398294 C 17.150047 30.124476 15.45332 21.440307 15.45332 11.847855 C 15.45542 10.595728 15.489999 9.3455146 15.550988 8.1013141 L 26.863476 8.1013141 A 3.3072915 3.3072915 0 0 1 26.840222 7.8377643 L 15.29674 7.8377643 z " />
    <path
       id="path234-4-5-5-7-6"
       style="color:#000000;fill:#000000"
       d="M 30.486511 14.080277 C 28.351619 14.080252 26.321611 15.074266 24.489978 16.851684 C 22.658345 18.629103 21.017773 21.189914 19.640661 24.349418 C 16.886439 30.668426 15.189253 39.38218 15.189253 49.005793 C 15.191453 50.304004 15.223719 51.601238 15.288989 52.890827 L 15.29674 53.015368 L 15.421797 53.015368 L 27.129093 53.015368 A 3.3072915 3.3072915 0 0 1 27.151831 52.751818 L 15.550988 52.751818 C 15.489999 51.507617 15.45544 50.257921 15.45332 49.005793 C 15.45332 39.413342 17.150047 30.728657 19.884574 24.454838 C 21.251837 21.317928 22.878953 18.784689 24.676013 17.04082 C 26.473074 15.29695 28.433636 14.343803 30.486511 14.343827 C 32.539386 14.343802 34.499947 15.296951 36.297009 17.04082 C 38.09407 18.784688 39.720666 21.317928 41.087931 24.454838 C 43.822458 30.728657 45.519702 39.413341 45.519701 49.005793 C 45.519872 50.257625 45.488464 51.50734 45.429784 52.751818 L 33.713704 52.751818 A 3.3072915 3.3072915 0 0 1 33.731274 53.015368 L 45.683516 53.015368 L 45.689717 52.890827 C 45.752597 51.600933 45.783431 50.303698 45.783251 49.005793 C 45.783252 39.382178 44.084516 30.668426 41.330293 24.349418 C 39.953181 21.189914 38.312093 18.629102 36.48046 16.851684 C 34.648827 15.074267 32.621403 14.080251 30.486511 14.080277 z " />
    <path
       id="path234-4-5-5-7-17"
       style="color:#000000;fill:#000000"
       d="M 49.076073 15.181502 C 39.452691 15.181501 30.74062 16.880687 24.421765 19.634977 C 21.262337 21.012121 18.701406 22.652616 16.924031 24.484293 C 15.146656 26.31597 14.152081 28.343818 14.152107 30.478759 C 14.15208 32.613699 15.146657 34.643098 16.924031 36.474776 C 18.701405 38.306453 21.262337 39.946946 24.421765 41.324092 C 30.74062 44.078382 39.45269 45.777567 49.076073 45.777567 C 50.373946 45.777747 51.671244 45.746396 52.961107 45.683516 L 53.087715 45.675764 L 53.087715 34.301782 A 3.3072915 3.3072915 0 0 1 52.822098 34.278527 L 52.822098 45.422033 C 51.57827 45.480653 50.327243 45.51213 49.076073 45.51195 C 39.483853 45.51195 30.800851 43.816839 24.527185 41.082246 C 21.390351 39.714949 18.856994 38.086362 17.113167 36.289257 C 15.369341 34.492153 14.416148 32.531686 14.416174 30.478759 C 14.416149 28.425831 15.36934 26.464849 17.113167 24.667744 C 18.856994 22.87064 21.390351 21.244119 24.527185 19.876823 C 30.800851 17.14223 39.483855 15.445568 49.076073 15.445569 C 50.32754 15.447669 51.578547 15.48179 52.822098 15.54272 L 52.822098 27.710453 A 3.3072915 3.3072915 0 0 1 53.087715 27.687198 L 53.087715 15.288989 L 52.961107 15.281238 C 51.671549 15.215968 50.37632 15.183702 49.07814 15.181502 L 49.076073 15.181502 z " />
    <path
       id="path234-4-5-5-7-17-1"
       style="color:#000000;fill:#000000"
       d="M 11.777575 15.181502 C 10.479396 15.183702 9.1821007 15.215968 7.8925414 15.281238 L 7.7674844 15.288989 L 7.7674844 15.414046 L 7.7674844 27.171468 A 3.3072915 3.3072915 0 0 1 8.0310342 27.183353 L 8.0310342 15.54272 C 9.2752046 15.48173 10.525478 15.447172 11.777575 15.445052 L 11.777575 15.445569 C 21.369794 15.445568 30.052281 17.14223 36.325947 19.876823 C 39.46278 21.244119 41.996654 22.87064 43.740482 24.667744 C 45.484309 26.464849 46.4375 28.425831 46.437475 30.478759 C 46.4375 32.531686 45.484309 34.492153 43.740482 36.289257 C 41.996655 38.086362 39.46278 39.714949 36.325947 41.082246 C 30.052281 43.816839 21.369795 45.51195 11.777575 45.51195 C 10.525775 45.51212 9.2754819 45.480713 8.0310342 45.422033 L 8.0310342 33.762796 A 3.3072915 3.3072915 0 0 1 7.7674844 33.786051 L 7.7674844 45.675764 L 7.8925414 45.683516 C 9.1824048 45.746396 10.479702 45.777747 11.777575 45.777567 C 21.400959 45.777567 30.113027 44.078382 36.431884 41.324092 C 39.591312 39.946946 42.154309 38.306453 43.931685 36.474776 C 45.709059 34.643098 46.703118 32.613182 46.703092 30.478242 C 46.703118 28.343302 45.709059 26.31597 43.931685 24.484293 C 42.154309 22.652616 39.591312 21.012121 36.431884 19.634977 C 30.113027 16.880712 21.400958 15.181501 11.777575 15.181502 z " />
    <text
       xml:space="preserve"
       style="font-style:normal;font-variant:normal;font-weight:normal;font-stretch:normal;font-size:2.11667px;line-height:1.25;font-family:Roboto;-inkscape-font-specification:Roboto;word-spacing:0px;stroke-width:0.264583"
       x="10.655473"
       y="11.479949"
       id="text10009"><tspan
         sodipodi:role="line"
         id="tspan10007"
         style="font-style:normal;font-variant:normal;font-weight:normal;font-stretch:normal;font-size:2.11667px;font-family:Roboto;-inkscape-font-specification:Roboto;stroke-width:0.264583"
         x="10.655473"
         y="11.479949">1</tspan></text>
    <text
       xml:space="preserve"
       style="font-style:normal;font-variant:normal;font-weight:normal;font-stretch:normal;font-size:2.11667px;line-height:1.25;font-family:Roboto;-inkscape-font-specification:Roboto;word-spacing:0px;stroke-width:0.264583"
       x="41.467827"
       y="19.627663"
       id="text10009-6"><tspan
         sodipodi:role="line"
         id="tspan10007-3"
         style="font-style:normal;font-variant:normal;font-weight:normal;font-stretch:normal;font-size:2.11667px;font-family:Roboto;-inkscape-font-specification:Roboto;stroke-width:0.264583"
         x="41.467827"
         y="19.627663">6</tspan></text>
    <text
       xml:space="preserve"
       style="font-style:normal;font-variant:normal;font-weight:normal;font-stretch:normal;font-size:1.41111px;line-height:1.25;font-family:Roboto;-inkscape-font-specification:Roboto;word-spacing:0px;stroke-width:0.264583"
       x="30.094204"
       y="16.141361"
       id="text10009-6-6"><tspan
         sodipodi:role="line"
         id="tspan10007-3-4"
         style="font-style:normal;font-variant:normal;font-weight:normal;font-stretch:normal;font-size:1.41111px;font-family:Roboto;-inkscape-font-specification:Roboto;stroke-width:0.264583"
         x="30.094204"
         y="16.141361">7</tspan></text>
    <text
       xml:space="preserve"
       style="font-style:normal;font-variant:normal;font-weight:normal;font-stretch:normal;font-size:1.41111px;line-height:1.25;font-family:Roboto;-inkscape-font-specification:Roboto;word-spacing:0px;stroke-width:0.264583"
       x="30.094204"
       y="45.716015"
       id="text10009-6-6-3"><tspan
         sodipodi:role="line"
         id="tspan10007-3-4-0"
         style="font-style:normal;font-variant:normal;font-weight:normal;font-stretch:normal;font-size:1.41111px;font-family:Roboto;-inkscape-font-specification:Roboto;stroke-width:0.264583"
         x="30.094204"
         y="45.716015">7</tspan></text>
    <text
       xml:space="preserve"
       style="font-style:normal;font-variant:normal;font-weight:normal;font-stretch:normal;font-size:1.41111px;line-height:1.25;font-family:Roboto;-inkscape-font-specification:Roboto;word-spacing:0px;stroke-width:0.264583"
       x="15.093092"
       y="30.980465"
       id="text10009-6-6-8"><tspan
         sodipodi:role="line"
         id="tspan10007-3-4-7"
         style="font-style:normal;font-variant:normal;font-weight:normal;font-stretch:normal;font-size:1.41111px;font-family:Roboto;-inkscape-font-specification:Roboto;stroke-width:0.264583"
         x="15.093092"
         y="30.980465">10</tspan></text>
    <text
       xml:space="preserve"
       style="font-style:normal;font-variant:normal;font-weight:normal;font-stretch:normal;font-size:1.41111px;line-height:1.25;font-family:Roboto;-inkscape-font-specification:Roboto;word-spacing:0px;stroke-width:0.264583"
       x="34.78508"
       y="18.579147"
       id="text10009-6-6-8-4"><tspan
         sodipodi:role="line"
         id="tspan10007-3-4-7-4"
         style="font-style:normal;font-variant:normal;font-weight:normal;font-stretch:normal;font-size:1.41111px;font-family:Roboto;-inkscape-font-specification:Roboto;stroke-width:0.264583"
         x="34.78508"
         y="18.579147">12</tspan></text>
    <text
       xml:space="preserve"
       style="font-style:normal;font-variant:normal;font-weight:normal;font-stretch:normal;font-size:1.41111px;line-height:1.25;font-family:Roboto;-inkscape-font-specification:Roboto;word-spacing:0px;stroke-width:0.264583"
       x="34.59119"
       y="43.405899"
       id="text10009-6-6-8-4-8"><tspan
         sodipodi:role="line"
         id="tspan10007-3-4-7-4-2"
         style="font-style:normal;font-variant:normal;font-weight:normal;font-stretch:normal;font-size:1.41111px;font-family:Roboto;-inkscape-font-specification:Roboto;stroke-width:0.264583"
         x="34.59119"
         y="43.405899">12</tspan></text>
    <text
       xml:space="preserve"
       style="font-style:normal;font-variant:normal;font-weight:normal;font-stretch:normal;font-size:1.41111px;line-height:1.25;font-family:Roboto;-inkscape-font-specification:Roboto;word-spacing:0px;stroke-width:0.264583"
       x="42.212811"
       y="26.108339"
       id="text10009-6-6-8-4-8-3"><tspan
         sodipodi:role="line"
         id="tspan10007-3-4-7-4-2-8"
         style="font-style:normal;font-variant:normal;font-weight:normal;font-stretch:normal;font-size:1.41111px;font-family:Roboto;-inkscape-font-specification:Roboto;stroke-width:0.264583"
         x="42.212811"
         y="26.108339">13</tspan></text>
    <text
       xml:space="preserve"
       style="font-style:normal;font-variant:normal;font-weight:normal;font-stretch:normal;font-size:1.41111px;line-height:1.25;font-family:Roboto;-inkscape-font-specification:Roboto;word-spacing:0px;stroke-width:0.264583"
       x="17.091738"
       y="26.247383"
       id="text10009-6-6-8-4-8-3-8"><tspan
         sodipodi:role="line"
         id="tspan10007-3-4-7-4-2-8-4"
         style="font-style:normal;font-variant:normal;font-weight:normal;font-stretch:normal;font-size:1.41111px;font-family:Roboto;-inkscape-font-specification:Roboto;stroke-width:0.264583"
         x="17.091738"
         y="26.247383">13</tspan></text>
    <text
       xml:space="preserve"
       style="font-style:normal;font-variant:normal;font-weight:normal;font-stretch:normal;font-size:1.41111px;line-height:1.25;font-family:Roboto;-inkscape-font-specification:Roboto;word-spacing:0px;stroke-width:0.264583"
       x="24.613186"
       y="43.284313"
       id="text10009-6-6-8-4-8-3-8-0"><tspan
         sodipodi:role="line"
         id="tspan10007-3-4-7-4-2-8-4-6"
         style="font-style:normal;font-variant:normal;font-weight:normal;font-stretch:normal;font-size:1.41111px;font-family:Roboto;-inkscape-font-specification:Roboto;stroke-width:0.264583"
         x="24.613186"
         y="43.284313">14</tspan></text>
    <text
       xml:space="preserve"
       style="font-style:normal;font-variant:normal;font-weight:normal;font-stretch:normal;font-size:1.41111px;line-height:1.25;font-family:Roboto;-inkscape-font-specification:Roboto;word-spacing:0px;stroke-width:0.264583"
       x="17.044638"
       y="35.753456"
       id="text10009-6-6-8-4-8-3-8-0-6"><tspan
         sodipodi:role="line"
         id="tspan10007-3-4-7-4-2-8-4-6-2"
         style="font-style:normal;font-variant:normal;font-weight:normal;font-stretch:normal;font-size:1.41111px;font-family:Roboto;-inkscape-font-specification:Roboto;stroke-width:0.264583"
         x="17.044638"
         y="35.753456">15</tspan></text>
    <text
       xml:space="preserve"
       style="font-style:normal;font-variant:normal;font-weight:normal;font-stretch:normal;font-size:1.41111px;line-height:1.25;font-family:Roboto;-inkscape-font-specification:Roboto;word-spacing:0px;stroke-width:0.264583"
       x="42.260406"
       y="35.753456"
       id="text10009-6-6-8-4-8-3-8-0-6-1"><tspan
         sodipodi:role="line"
         id="tspan10007-3-4-7-4-2-8-4-6-2-5"
         style="font-style:normal;font-variant:normal;font-weight:normal;font-stretch:normal;font-size:1.41111px;font-family:Roboto;-inkscape-font-specification:Roboto;stroke-width:0.264583"
         x="42.260406"
         y="35.753456">15</tspan></text>
    <text
       xml:space="preserve"
       style="font-style:normal;font-variant:normal;font-weight:normal;font-stretch:normal;font-size:1.41111px;line-height:1.25;font-family:Roboto;-inkscape-font-specification:Roboto;word-spacing:0px;stroke-width:0.264583"
       x="24.534533"
       y="18.616011"
       id="text10009-6-6-8-4-8-3-8-0-8"><tspan
         sodipodi:role="line"
         id="tspan10007-3-4-7-4-2-8-4-6-5"
         style="font-style:normal;font-variant:normal;font-weight:normal;font-stretch:normal;font-size:1.41111px;font-family:Roboto;-inkscape-font-specification:Roboto;stroke-width:0.264583"
         x="24.534533"
         y="18.616011">14</tspan></text>
    <text
       xml:space="preserve"
       style="font-style:normal;font-variant:normal;font-weight:normal;font-stretch:normal;font-size:1.41111px;line-height:1.25;font-family:Roboto;-inkscape-font-specification:Roboto;word-spacing:0px;stroke-width:0.264583"
       x="44.139122"
       y="30.980465"
       id="text10009-6-6-8-8"><tspan
         sodipodi:role="line"
         id="tspan10007-3-4-7-1"
         style="font-style:normal;font-variant:normal;font-weight:normal;font-stretch:normal;font-size:1.41111px;font-family:Roboto;-inkscape-font-specification:Roboto;stroke-width:0.264583"
         x="44.139122"
         y="30.980465">10</tspan></text>
    <text
       xml:space="preserve"
       style="font-style:normal;font-variant:normal;font-weight:normal;font-stretch:normal;font-size:2.11667px;line-height:1.25;font-family:Roboto;-inkscape-font-specification:Roboto;word-spacing:0px;stroke-width:0.264583"
       x="17.209532"
       y="11.479949"
       id="text10009-5"><tspan
         sodipodi:role="line"
         style="font-style:normal;font-variant:normal;font-weight:normal;font-stretch:normal;font-size:2.11667px;font-family:Roboto;-inkscape-font-specification:Roboto;stroke-width:0.264583"
         x="17.209532"
         y="11.479949"
         id="tspan10038">2</tspan></text>
    <text
       xml:space="preserve"
       style="font-style:normal;font-variant:normal;font-weight:normal;font-stretch:normal;font-size:2.11667px;line-height:1.25;font-family:Roboto;-inkscape-font-specification:Roboto;word-spacing:0px;stroke-width:0.264583"
       x="49.919743"
       y="18.823061"
       id="text10009-5-1"><tspan
         sodipodi:role="line"
         style="font-style:normal;font-variant:normal;font-weight:normal;font-stretch:normal;font-size:2.11667px;font-family:Roboto;-inkscape-font-specification:Roboto;stroke-width:0.264583"
         x="49.919743"
         y="18.823061"
         id="tspan10038-8">3</tspan></text>
    <text
       xml:space="preserve"
       style="font-style:normal;font-variant:normal;font-weight:normal;font-stretch:normal;font-size:2.11667px;line-height:1.25;font-family:Roboto;-inkscape-font-specification:Roboto;word-spacing:0px;stroke-width:0.264583"
       x="42.526161"
       y="50.899704"
       id="text10009-5-1-0"><tspan
         sodipodi:role="line"
         style="font-style:normal;font-variant:normal;font-weight:normal;font-stretch:normal;font-size:2.11667px;font-family:Roboto;-inkscape-font-specification:Roboto;stroke-width:0.264583"
         x="42.526161"
         y="50.899704"
         id="tspan10096">4</tspan></text>
    <text
       xml:space="preserve"
       style="font-style:normal;font-variant:normal;font-weight:normal;font-stretch:normal;font-size:2.11667px;line-height:1.25;font-family:Roboto;-inkscape-font-specification:Roboto;word-spacing:0px;stroke-width:0.264583"
       x="9.7241592"
       y="43.639477"
       id="text10009-5-1-0-6"><tspan
         sodipodi:role="line"
         style="font-style:normal;font-variant:normal;font-weight:normal;font-stretch:normal;font-size:2.11667px;font-family:Roboto;-inkscape-font-specification:Roboto;stroke-width:0.264583"
         x="9.7241592"
         y="43.639477"
         id="tspan10127">5</tspan></text>
    <text
       xml:space="preserve"
       style="font-style:normal;font-variant:normal;font-weight:normal;font-stretch:normal;font-size:2.11667px;line-height:1.25;font-family:Roboto;-inkscape-font-specification:Roboto;word-spacing:0px;stroke-width:0.264583"
       x="18.298552"
       y="19.637484"
       id="text10009-6-69"><tspan
         sodipodi:role="line"
         id="tspan10007-3-7"
         style="font-style:normal;font-variant:normal;font-weight:normal;font-stretch:normal;font-size:2.11667px;font-family:Roboto;-inkscape-font-specification:Roboto;stroke-width:0.264583"
         x="18.298552"
         y="19.637484">8</tspan></text>
    <text
       xml:space="preserve"
       style="font-style:normal;font-variant:normal;font-weight:normal;font-stretch:normal;font-size:2.11667px;line-height:1.25;font-family:Roboto;-inkscape-font-specification:Roboto;word-spacing:0px;stroke-width:0.264583"
       x="41.503288"
       y="42.708969"
       id="text10009-6-69-0"><tspan
         sodipodi:role="line"
         id="tspan10007-3-7-0"
         style="font-style:normal;font-variant:normal;font-weight:normal;font-stretch:normal;font-size:2.11667px;font-family:Roboto;-inkscape-font-specification:Roboto;stroke-width:0.264583"
         x="41.503288"
         y="42.708969">9</tspan></text>
    <text
       xml:space="preserve"
       style="font-style:normal;font-variant:normal;font-weight:normal;font-stretch:normal;font-size:2.11667px;line-height:1.25;font-family:Roboto;-inkscape-font-specification:Roboto;word-spacing:0px;stroke-width:0.264583"
       x="17.834297"
       y="42.702766"
       id="text10009-6-69-0-6"><tspan
         sodipodi:role="line"
         id="tspan10007-3-7-0-1"
         style="font-style:normal;font-variant:normal;font-weight:normal;font-stretch:normal;font-size:2.11667px;font-family:Roboto;-inkscape-font-specification:Roboto;stroke-width:0.264583"
         x="17.834297"
         y="42.702766">11</tspan></text>
    <text
       xml:space="preserve"
       style="font-style:normal;font-variant:normal;font-weight:normal;font-stretch:normal;font-size:2.11667px;line-height:1.25;font-family:Roboto;-inkscape-font-specification:Roboto;word-spacing:0px;stroke-width:0.264583"
       x="29.201315"
       y="31.172775"
       id="text10009-5-5"><tspan
         sodipodi:role="line"
         style="font-style:normal;font-variant:normal;font-weight:normal;font-stretch:normal;font-size:2.11667px;font-family:Roboto;-inkscape-font-specification:Roboto;stroke-width:0.264583"
         x="29.201315"
         y="31.172775"
         id="tspan10038-1">16</tspan></text>
    <text
       xml:space="preserve"
       style="font-size:5.64444px;line-height:1.25;font-family:Roboto;-inkscape-font-specification:Roboto;word-spacing:0px;stroke-width:0.264583"
       x="51.245075"
       y="33.000668"
       id="text295-2"><tspan
         sodipodi:role="line"
         id="tspan293-8"
         style="font-size:5.64444px;stroke-width:0.264583"
         x="51.245075"
         y="33.000668">B</tspan></text>
    <text
       xml:space="preserve"
       style="font-size:5.64444px;line-height:1.25;font-family:Roboto;-inkscape-font-specification:Roboto;word-spacing:0px;stroke-width:0.264583"
       x="28.584648"
       y="55.12635"
       id="text295-2-8-7"><tspan
         sodipodi:role="line"
         id="tspan293-8-7-2"
         style="font-size:5.64444px;stroke-width:0.264583"
         x="28.584648"
         y="55.12635">C</tspan></text>
    <text
       xml:space="preserve"
       style="font-size:5.64444px;line-height:1.25;font-family:Roboto;-inkscape-font-specification:Roboto;word-spacing:0px;stroke-width:0.264583"
       x="5.9242201"
       y="32.485283"
       id="text295-2-8-7-4"><tspan
         sodipodi:role="line"
         id="tspan293-8-7-2-1"
         style="font-size:5.64444px;stroke-width:0.264583"
         x="5.9242201"
         y="32.485283">D</tspan></text>
    <text
       xml:space="preserve"
       style="font-size:5.64444px;line-height:1.25;font-family:Roboto;-inkscape-font-specification:Roboto;word-spacing:0px;stroke-width:0.264583"
       x="28.304825"
       y="9.8442173"
       id="text295"><tspan
         sodipodi:role="line"
         id="tspan293"
         style="font-size:5.64444px;stroke-width:0.264583"
         x="28.304825"
         y="9.8442173">A</tspan></text>
  </g>
</svg>
